<?xml version="1.0"?>
<svg xmlns="http://www.w3.org/2000/svg" xmlns:xlink="http://www.w3.org/1999/xlink" xmlns:svgjs="http://svgjs.com/svgjs" version="1.1" width="512" height="512" x="0" y="0" viewBox="0 0 512 512" style="enable-background:new 0 0 512 512" xml:space="preserve" class=""><g>
<g xmlns="http://www.w3.org/2000/svg">
	<g>
		<path d="M499.953,305.293l-41.946-83.894C455.823,83.133,329.802-23.178,188.04,4.37C99.249,21.621,28.509,93.039,12.011,182.086    C0.396,244.773,14.34,307.121,51.275,357.649C81.425,398.895,98.031,448.384,98.032,497c0,8.284,6.716,15,15,15h210.002    c8.284,0,15-6.716,15-15v-39.2c0-4.301,3.499-7.8,7.8-7.8h67.201c24.813,0,45-20.187,45-45v-45h8.108    c13.196,0,25.217-6.702,32.154-17.927C505.236,330.845,505.855,317.097,499.953,305.293z M472.778,326.297    c-0.688,1.112-2.71,3.699-6.635,3.699h-23.108c-8.284,0-15,6.716-15,15v60.001c0,8.271-6.729,15-15,15h-67.201    c-20.843,0-37.8,16.957-37.8,37.8v24.2H127.572c-3.06-49.999-21.279-99.924-52.078-142.055    c-32.01-43.789-44.08-97.91-33.985-152.391C55.78,110.519,116.967,48.74,193.761,33.819    c123.124-23.917,234.273,68.805,234.273,191.177c0,2.329,0.542,4.625,1.584,6.708l43.501,87.003    C474.876,322.218,473.466,325.185,472.778,326.297z" fill="#ff4600" data-original="#000000" style="" class=""/>
	</g>
</g>
<g xmlns="http://www.w3.org/2000/svg">
	<g>
		<path d="M293.034,89.996H173.033c-24.813,0-45,20.187-45,45v180.002c0,24.813,20.186,45,45,45h150.001c8.284,0,15-6.716,15-15    c0-10.298,0-200.012,0-210.002C338.035,110.183,317.848,89.996,293.034,89.996z M218.033,119.996L218.033,119.996h30.001v38.787    l-4.394-4.393c-5.857-5.858-15.355-5.858-21.213,0l-4.394,4.393V119.996z M308.034,329.998H173.033c-8.271,0-15-6.729-15-15    c0-8.271,6.728-15,15-15h135.001V329.998z M308.036,269.998H173.035c-5.259,0-10.305,0.915-15,2.58V134.996h-0.002    c0-8.271,6.729-15,15-15h15v75.001c0,6.067,3.654,11.537,9.26,13.858c5.604,2.321,12.058,1.039,16.347-3.252l19.394-19.393    l19.394,19.393c4.297,4.298,10.752,5.569,16.347,3.252c5.605-2.322,9.26-7.792,9.26-13.858v-75.001h15c8.271,0,15,6.729,15,15    V269.998z" fill="#ff4600" data-original="#000000" style="" class=""/>
	</g>
</g>
<g xmlns="http://www.w3.org/2000/svg">
</g>
<g xmlns="http://www.w3.org/2000/svg">
</g>
<g xmlns="http://www.w3.org/2000/svg">
</g>
<g xmlns="http://www.w3.org/2000/svg">
</g>
<g xmlns="http://www.w3.org/2000/svg">
</g>
<g xmlns="http://www.w3.org/2000/svg">
</g>
<g xmlns="http://www.w3.org/2000/svg">
</g>
<g xmlns="http://www.w3.org/2000/svg">
</g>
<g xmlns="http://www.w3.org/2000/svg">
</g>
<g xmlns="http://www.w3.org/2000/svg">
</g>
<g xmlns="http://www.w3.org/2000/svg">
</g>
<g xmlns="http://www.w3.org/2000/svg">
</g>
<g xmlns="http://www.w3.org/2000/svg">
</g>
<g xmlns="http://www.w3.org/2000/svg">
</g>
<g xmlns="http://www.w3.org/2000/svg">
</g>
</g></svg>
